<svg width="48" height="48" viewBox="0 0 48 48" fill="none" xmlns="http://www.w3.org/2000/svg">
<circle cx="24" cy="24" r="24" fill="#FF931C"/>
<path d="M28.6188 32.2717C28.3623 32.2717 28.1544 32.0638 28.1544 31.8073C28.1548 31.754 28.1639 31.7012 28.1814 31.6508L28.1846 31.6415C28.6318 30.3493 29.8261 28.1808 32.7839 28.1808C35.9615 28.1808 36.619 25.1161 36.7183 24.5032C36.76 24.2642 36.6935 24.0191 36.5368 23.834C36.3788 23.6457 36.1455 23.537 35.8997 23.5373H32.3753C32.1189 23.5373 31.911 23.3294 31.911 23.073C31.911 22.8165 32.1189 22.6086 32.3753 22.6086H35.8997C36.4168 22.6081 36.908 22.8354 37.2423 23.23C37.5766 23.6246 37.72 24.1464 37.6345 24.6564C37.5611 25.1082 36.7987 29.1095 32.7839 29.1095C30.5198 29.1095 29.5108 30.6502 29.0627 31.942C29.0034 32.1376 28.8232 32.2715 28.6188 32.2717Z" fill="white"/>
<path d="M19.4851 29.4623L16.9637 25.8126C16.1125 24.5274 15.6454 23.0261 15.6171 21.4849V21.2156L23.9753 20.2869L33.2622 21.2156V21.4849C33.248 23.1147 32.7073 24.6963 31.7205 25.9937C30.829 27.1777 29.7796 29.1744 29.227 32.3598L25.3683 33.7529L19.4851 29.4623Z" fill="white"/>
<path d="M34.6552 33.2653V33.3164C34.6558 33.5924 34.5311 33.8537 34.3162 34.0269L32.5842 35.4106C32.4236 35.5396 32.2238 35.61 32.0177 35.6103H23.7013C23.8313 35.4988 23.9567 35.3828 24.0821 35.2574C24.898 34.4696 25.4702 33.4638 25.7305 32.3599H33.7497C33.99 32.3594 34.2206 32.4546 34.3905 32.6245C34.5604 32.7944 34.6557 33.025 34.6552 33.2653Z" fill="white"/>
<path d="M25.7306 32.3598C25.4703 33.4638 24.8981 34.4696 24.0821 35.2574C23.9568 35.3827 23.8314 35.4988 23.7014 35.6103C21.8115 37.2262 19.3226 37.4769 17.9667 36.1303C17.9363 36.1017 17.9084 36.0707 17.8831 36.0375C17.8741 36.0294 17.8662 36.02 17.8599 36.0096C17.755 35.8958 17.6603 35.773 17.5767 35.6428C18.7236 34.5562 19.5873 35.3827 20.7342 34.2404C21.8997 33.0796 21.0267 32.2066 22.1922 31.0458C23.3345 29.9035 24.2029 30.73 25.3452 29.6434H25.3498C25.4341 29.7788 25.5086 29.92 25.5727 30.066C25.8602 30.7961 25.9153 31.5972 25.7306 32.3598Z" fill="#F2F2F2"/>
<path d="M16.6537 28.5262C17.0003 29.3817 17.0936 30.3189 16.9225 31.226C16.8982 31.3682 16.8696 31.5043 16.8357 31.6395C16.3411 33.6018 14.8063 34.9395 13.2723 34.6833C13.2386 34.6786 13.2055 34.6712 13.1731 34.661C13.1632 34.6599 13.1536 34.6573 13.1445 34.6534C13.0213 34.6272 12.9006 34.5903 12.7838 34.5431C13.0342 33.2819 13.9966 33.4243 14.2207 32.1261C14.4485 30.8068 13.458 30.6378 13.6857 29.3185C13.9067 28.0225 14.8723 28.1627 15.1195 26.9037L15.1226 26.9015C15.2423 26.9517 15.3582 27.0104 15.4694 27.0772C16.0039 27.4268 16.4175 27.9328 16.6537 28.5262Z" fill="#F2F2F2"/>
<path d="M25.3498 29.6434H25.3452C24.2029 30.73 23.3346 29.9035 22.1923 31.0457C21.0268 32.2066 21.8998 33.0796 20.7343 34.2404C19.5873 35.3827 18.7236 34.5562 17.5767 35.6428C17.4924 35.5058 17.4179 35.3631 17.3538 35.2156C16.713 33.7064 17.261 31.5983 18.8444 30.0288C19.0445 29.8267 19.2586 29.6389 19.4852 29.467V29.4623C21.3379 28.0414 23.6596 27.8696 24.9598 29.1559C24.9991 29.1927 25.0348 29.2331 25.0666 29.2766C25.1704 29.3913 25.2651 29.514 25.3498 29.6434Z" fill="#F2F2F2"/>
<path d="M15.1226 26.9015L15.1195 26.9036C14.8723 28.1627 13.9067 28.0224 13.6857 29.3185C13.458 30.6378 14.4485 30.8067 14.2208 32.126C13.9966 33.4242 13.0342 33.2818 12.7838 34.543C12.6634 34.4918 12.5468 34.432 12.4348 34.3642C11.2992 33.6636 10.671 32.0059 10.984 30.2186C11.0217 29.9902 11.0756 29.7647 11.1451 29.5439L11.1429 29.5408C11.7046 27.7255 13.1655 26.5189 14.6342 26.7612C14.6776 26.7672 14.7203 26.7772 14.7619 26.7911C14.8848 26.8185 15.0054 26.8554 15.1226 26.9015Z" fill="#F2F2F2"/>
<path d="M21.1892 17.0365C20.9327 17.0365 20.7249 16.8286 20.7249 16.5721C20.7335 16.1004 20.9606 15.6593 21.3396 15.3783C21.563 15.1735 21.6535 15.0821 21.6535 14.8675C21.6535 14.653 21.5607 14.5629 21.3396 14.3567C20.9611 14.0763 20.7341 13.6362 20.7249 13.1652C20.7334 12.6936 20.9608 12.2528 21.3401 11.9723C21.563 11.7676 21.6535 11.6766 21.6535 11.4643C21.6535 11.2079 21.8614 11 22.1179 11C22.3743 11 22.5822 11.2079 22.5822 11.4643C22.5735 11.9357 22.3463 12.3763 21.9674 12.6568C21.7441 12.8616 21.6535 12.9526 21.6535 13.1676C21.6535 13.3826 21.7464 13.4722 21.9674 13.6783C22.3455 13.9586 22.5725 14.398 22.5822 14.8685C22.5731 15.3398 22.3461 15.7804 21.9674 16.0614C21.7464 16.2675 21.6535 16.359 21.6535 16.5721C21.6535 16.8286 21.4456 17.0365 21.1892 17.0365Z" fill="#F59500"/>
<path d="M23.9753 17.0365C23.7189 17.0365 23.511 16.8286 23.511 16.5721C23.5196 16.1004 23.7467 15.6593 24.1258 15.3783C24.3491 15.1735 24.4397 15.0821 24.4397 14.8675C24.4397 14.653 24.3468 14.5629 24.1258 14.3567C23.7473 14.0763 23.5202 13.6362 23.511 13.1652C23.5196 12.6936 23.7469 12.2528 24.1262 11.9723C24.3491 11.7676 24.4397 11.6766 24.4397 11.4643C24.4397 11.2079 24.6476 11 24.904 11C25.1605 11 25.3684 11.2079 25.3684 11.4643C25.3596 11.9357 25.1325 12.3763 24.7536 12.6568C24.5302 12.8616 24.4397 12.9526 24.4397 13.1676C24.4397 13.3826 24.5325 13.4722 24.7536 13.6783C25.1316 13.9586 25.3586 14.398 25.3684 14.8685C25.3592 15.3398 25.1322 15.7804 24.7536 16.0614C24.5325 16.2675 24.4397 16.359 24.4397 16.5721C24.4397 16.8286 24.2318 17.0365 23.9753 17.0365Z" fill="#F59500"/>
<path d="M26.7613 17.0365C26.5049 17.0365 26.297 16.8286 26.297 16.5721C26.3056 16.1004 26.5327 15.6593 26.9118 15.3783C27.1351 15.1735 27.2257 15.0821 27.2257 14.8675C27.2257 14.653 27.1328 14.5629 26.9118 14.3567C26.5333 14.0763 26.3062 13.6362 26.297 13.1652C26.3056 12.6936 26.533 12.2528 26.9123 11.9723C27.1351 11.7676 27.2257 11.6766 27.2257 11.4643C27.2257 11.2079 27.4336 11 27.69 11C27.9465 11 28.1544 11.2079 28.1544 11.4643C28.1456 11.9357 27.9185 12.3763 27.5396 12.6568C27.3162 12.8616 27.2257 12.9526 27.2257 13.1676C27.2257 13.3826 27.3186 13.4722 27.5396 13.6783C27.9176 13.9586 28.1446 14.398 28.1544 14.8685C28.1453 15.3398 27.9182 15.7804 27.5396 16.0614C27.3186 16.2675 27.2257 16.359 27.2257 16.5721C27.2257 16.8286 27.0178 17.0365 26.7613 17.0365Z" fill="#F59500"/>
<path d="M25.5727 30.0661C25.0943 30.487 24.4904 30.7384 23.8546 30.7812C22.8143 30.8388 21.983 31.6681 21.9229 32.7082C21.8096 34.1625 20.6518 35.3163 19.1972 35.4247C18.7105 35.446 18.2482 35.6441 17.897 35.9819C17.8831 35.9912 17.8738 36.0004 17.8599 36.0097C17.755 35.8959 17.6602 35.7732 17.5766 35.6429C17.4923 35.506 17.4178 35.3632 17.3538 35.2157C17.8327 34.7993 18.4341 34.5499 19.0672 34.5053C19.5724 34.4846 20.0507 34.2721 20.4045 33.9109C20.7684 33.5604 20.983 33.083 21.0035 32.5782C21.1169 31.1258 22.272 29.9728 23.7246 29.8618C24.2106 29.8411 24.6725 29.6447 25.0247 29.3092C25.0375 29.297 25.0515 29.2861 25.0665 29.2767C25.1703 29.3915 25.265 29.5141 25.3498 29.6436C25.4341 29.7789 25.5086 29.9201 25.5727 30.0661Z" fill="#FF931C"/>
<path d="M15.4695 27.0773C15.3499 27.5819 15.0671 28.033 14.6651 28.3606C14.0014 28.8883 13.8396 29.8302 14.2891 30.5492C14.8982 31.5682 14.6723 32.8792 13.7573 33.6356C13.4441 33.8788 13.2304 34.2279 13.1562 34.6175C13.1513 34.6302 13.1495 34.6407 13.1446 34.6534C13.0214 34.6272 12.9007 34.5903 12.7839 34.5431C12.6635 34.4919 12.5468 34.4322 12.4349 34.3643C12.557 33.8624 12.839 33.4139 13.2384 33.0863C13.5641 32.8349 13.7817 32.4687 13.8467 32.0623C13.9235 31.6584 13.8413 31.2404 13.6174 30.8955C13.0093 29.8776 13.2337 28.5684 14.1461 27.8112C14.4591 27.5688 14.6735 27.221 14.7495 26.8325C14.7522 26.8184 14.7564 26.8045 14.762 26.7912C14.8849 26.8186 15.0055 26.8555 15.1227 26.9016C15.2423 26.9517 15.3583 27.0105 15.4695 27.0773Z" fill="#FF931C"/>
<path d="M33.2622 19.3583V21.2156H15.6171V19.3583C15.6186 18.846 16.0335 18.4311 16.5458 18.4296H32.3335C32.8457 18.4311 33.2606 18.846 33.2622 19.3583Z" fill="white"/>
</svg>
