<svg width="48" height="48" viewBox="0 0 48 48" fill="none" xmlns="http://www.w3.org/2000/svg">
<circle cx="24" cy="24" r="24" fill="#FF931C"/>
<path d="M31.8751 21.5662V24.1217L34.0906 24.413L34.0897 19.128C34.0535 17.6547 28.8997 15.9995 22.5458 15.9995C16.1915 15.9995 11.0377 17.6551 11.002 19.128L11.0001 27.5967C11.0001 29.077 15.9804 30.8954 22.357 30.8954C22.4377 30.8954 22.5171 30.8945 22.5973 30.894V22.4939L20.4152 19.1437L31.8751 21.5662Z" fill="white"/>
<path d="M22.5973 27.1329V22.494L20.4152 19.1438L32 21.5001L31.875 24.1218L25.3806 23.4218V28.0607C25.3806 28.0607 22.5875 27.1213 22.5973 27.1329Z" fill="#F5F5F5"/>
<path d="M22.5678 15.999C16.1912 15.999 11.0221 17.6629 11.0221 19.1432C11.0221 20.6235 16.0024 22.4934 22.3785 22.4934C22.4588 22.4934 22.5381 22.4925 22.6179 22.492L21.1861 19.499L32 21.5C33.2961 21.0667 34.113 19.7105 34.113 19.1432C34.1135 17.6629 28.9444 15.999 22.5678 15.999Z" fill="#F5F5F5"/>
<path d="M27.7001 25.9487V35.0191C31.5332 35.001 34.958 34.5492 37.0001 33.8663V24.7955L25.3806 23.2688L27.7001 25.9487Z" fill="white"/>
<path d="M27.7001 25.9487V35.0191L25.3806 32.2358V23.2688L27.7001 25.9487Z" fill="#F2F2F2"/>
<circle cx="14" cy="24" r="1" fill="#FF931C"/>
<circle cx="19" cy="27" r="1" fill="#FF931C"/>
<circle cx="34" cy="29" r="1" fill="url(#paint0_linear)"/>
<circle cx="30" cy="33" r="1" fill="url(#paint1_linear)"/>
<circle cx="20.5" cy="24.5" r="0.5" fill="#FF931C"/>
<circle cx="29.5" cy="27.5" r="0.5" fill="url(#paint2_linear)"/>
<circle cx="34.5" cy="32.5" r="0.5" fill="url(#paint3_linear)"/>
<circle cx="14.5" cy="27.5" r="0.5" fill="#FF931C"/>
<defs>
<linearGradient id="paint0_linear" x1="34" y1="28" x2="34" y2="30" gradientUnits="userSpaceOnUse">
<stop stop-color="#F69901"/>
<stop offset="1" stop-color="#FAA805"/>
</linearGradient>
<linearGradient id="paint1_linear" x1="30" y1="32" x2="30" y2="34" gradientUnits="userSpaceOnUse">
<stop stop-color="#F69901"/>
<stop offset="1" stop-color="#FAA805"/>
</linearGradient>
<linearGradient id="paint2_linear" x1="29.5" y1="27" x2="29.5" y2="28" gradientUnits="userSpaceOnUse">
<stop stop-color="#F69901"/>
<stop offset="1" stop-color="#FAA805"/>
</linearGradient>
<linearGradient id="paint3_linear" x1="34.5" y1="32" x2="34.5" y2="33" gradientUnits="userSpaceOnUse">
<stop stop-color="#F69901"/>
<stop offset="1" stop-color="#FAA805"/>
</linearGradient>
</defs>
</svg>
