<svg width="48" height="48" viewBox="0 0 48 48" fill="none" xmlns="http://www.w3.org/2000/svg">
<circle cx="24" cy="24" r="24" fill="#FF931C"/>
<path d="M27.0349 20.7681C27.0289 20.7681 27.0229 20.7679 27.0169 20.7677C26.7921 20.758 26.6178 20.5678 26.6275 20.343L26.8463 15.3029C26.855 15.1018 26.6987 14.931 26.4978 14.9223L25.5919 14.8822C25.3671 14.8722 25.193 14.682 25.2029 14.4572C25.2129 14.2323 25.4039 14.0589 25.6279 14.0681L26.5335 14.1081C27.1828 14.1364 27.6885 14.6882 27.6602 15.3382L27.4415 20.3783C27.4321 20.5971 27.2517 20.7681 27.0349 20.7681Z" fill="white"/>
<path fill-rule="evenodd" clip-rule="evenodd" d="M29.2801 18.7422L27.4951 24.5722H27.8231H29.6667H29.8177L31.4041 19.392L30.4584 18.7699L29.2801 18.7422Z" fill="white"/>
<path fill-rule="evenodd" clip-rule="evenodd" d="M30.0408 14.0131C29.3878 14.5829 28.7224 15.7501 29.5187 17.1545L30.5583 18.0785L32.0939 17.9429C32.0954 17.9429 32.0954 17.9429 32.097 17.9445C33.8913 17.23 34.7553 12.832 31.5887 11.5524C31.216 11.4014 31.8383 12.4409 30.0408 14.0131Z" fill="white"/>
<path fill-rule="evenodd" clip-rule="evenodd" d="M29.5187 17.1543C29.3323 17.0974 29.1336 17.2036 29.0767 17.3884L28.8195 18.2307C28.7625 18.4155 28.8672 18.6157 29.0536 18.6727L29.28 18.742L31.4039 19.3918L31.6302 19.4611C31.8151 19.5181 32.0153 19.4119 32.0723 19.2255L32.3295 18.3847C32.3865 18.1999 32.2817 18.0013 32.0969 17.9443C32.0954 17.9428 32.0954 17.9428 32.0938 17.9428L29.5187 17.1543Z" fill="white"/>
<path fill-rule="evenodd" clip-rule="evenodd" d="M21.8506 25.3274L22.0889 19.7903L25.3739 19.9317L25.1356 25.4688L21.8506 25.3274Z" fill="white"/>
<path fill-rule="evenodd" clip-rule="evenodd" d="M25.1833 13.5973L25.2418 12.2222C25.2711 11.5785 24.7674 11.0304 24.1236 11.0011C23.4798 10.9734 22.9315 11.4769 22.9038 12.1206L22.8438 13.4957C22.8453 13.4957 23.9896 13.8822 23.9927 13.8822L25.1833 13.5973Z" fill="white"/>
<path fill-rule="evenodd" clip-rule="evenodd" d="M25.3634 20.3328L25.6175 14.4766L25.6422 13.9207C25.6529 13.6589 25.4511 13.4356 25.1909 13.4186H25.1817L22.8591 13.317C22.856 13.317 22.8529 13.317 22.8514 13.317C22.5896 13.3109 22.3678 13.5157 22.357 13.7775L22.0782 20.1896L25.3634 20.3328Z" fill="white"/>
<path fill-rule="evenodd" clip-rule="evenodd" d="M30.5707 36.0556L31.0343 26.4774L23.6476 25L15.5725 26.4774L16.0361 36.0556L23.275 38L30.5707 36.0556Z" fill="white"/>
<path fill-rule="evenodd" clip-rule="evenodd" d="M31 38L31.5 34.5L24.2669 34L15 34.5L15.7399 38H31Z" fill="#F2F2F2"/>
<path fill-rule="evenodd" clip-rule="evenodd" d="M31.5025 26.7819C32.1094 26.7819 32.6069 26.2845 32.6069 25.6762V24.8848C32.6069 24.7123 32.4667 24.5721 32.2942 24.5721H30.9219H27.823H25.2463H22.0489H20.0667H15.5756H14.3127C14.1402 24.5721 14 24.7123 14 24.8848V25.6762C14 26.2845 14.4975 26.7819 15.1058 26.7819H15.2599H27.4273H30.5246H31.347H31.5025Z" fill="white"/>
<path fill-rule="evenodd" clip-rule="evenodd" d="M19.6417 29.6276H26.9652C27.1808 29.6276 27.3579 29.8031 27.3579 30.0187V32.2793C27.3579 32.4948 27.1808 32.6704 26.9652 32.6704H19.6417C19.426 32.6704 19.2505 32.4948 19.2505 32.2793V30.0187C19.2505 29.8031 19.426 29.6276 19.6417 29.6276Z" fill="#FF931C"/>
</svg>
